<?xml version="1.0" standalone="no"?>
<!DOCTYPE svg PUBLIC "-//W3C//DTD SVG 20010904//EN"
 "http://www.w3.org/TR/2001/REC-SVG-20010904/DTD/svg10.dtd">
<svg version="1.0" xmlns="http://www.w3.org/2000/svg"
 width="792.000000pt" height="1280.000000pt" viewBox="0 0 792.000000 1280.000000"
 preserveAspectRatio="xMidYMid meet">

<g transform="translate(0.000000,1280.000000) scale(0.100000,-0.100000)"
fill="#000000" stroke="none">
<path d="M1 9908 c1 -1591 4 -2882 6 -2868 9 57 69 222 114 316 50 105 146
243 202 290 17 15 52 36 77 47 127 56 563 -13 782 -124 45 -23 91 -24 108 -4
8 10 10 29 6 55 -3 22 -9 58 -12 79 -9 54 0 83 37 119 29 28 31 35 26 79 -3
26 -13 77 -21 113 -8 36 -15 102 -16 146 0 133 -38 233 -176 465 -93 157 -114
162 -233 55 -90 -81 -122 -96 -204 -96 -94 0 -186 35 -282 108 -183 138 -174
307 25 502 255 249 322 310 343 312 12 1 67 2 122 2 133 1 128 -11 109 256
-35 511 -88 873 -180 1230 -44 168 -77 267 -166 490 -96 238 -125 325 -153
460 -31 142 -32 203 -5 230 36 36 60 25 166 -68 224 -200 342 -354 413 -536
65 -168 179 -530 225 -716 87 -346 119 -620 136 -1157 5 -174 11 -317 12 -318
2 -1 17 -7 33 -12 29 -9 30 -12 29 -64 0 -30 -9 -88 -18 -129 -29 -124 -15
-211 79 -468 90 -247 127 -427 160 -767 27 -286 17 -384 -56 -535 -72 -149
-64 -206 42 -327 64 -73 116 -181 168 -348 71 -228 73 -322 10 -485 -28 -73
-45 -102 -174 -290 -73 -107 -120 -208 -153 -330 -22 -83 -25 -116 -26 -260
-1 -91 2 -187 6 -215 25 -186 82 -358 186 -555 127 -241 144 -278 152 -338 8
-63 -2 -82 -32 -55 -11 10 -18 12 -18 5 0 -7 5 -12 10 -12 6 0 10 -4 10 -8 0
-5 -17 -9 -39 -10 l-38 -2 -105 173 c-258 422 -346 616 -399 877 -21 104 -23
142 -23 390 0 289 6 355 54 531 37 134 44 195 32 262 -14 76 -64 179 -99 207
-34 27 -51 21 -146 -52 -216 -165 -391 -184 -627 -68 -41 21 -106 47 -145 60
-99 32 -153 61 -211 113 -49 45 -100 128 -114 190 -5 17 -8 -1517 -9 -3410
l-1 -3443 3960 0 3960 0 0 6400 0 6400 -3960 0 -3960 0 1 -2892z m5927 2740
c16 -21 32 -232 32 -441 0 -190 -1 -197 -20 -197 -11 0 -20 1 -20 3 -1 1 -7
101 -15 223 -10 163 -19 241 -35 298 -20 72 -20 79 -5 102 17 26 46 32 63 12z
m111 -339 c18 -108 11 -379 -9 -379 -21 0 -32 132 -25 299 8 178 16 197 34 80z
m10 -571 c7 -40 11 -129 9 -198 l-3 -125 -27 -3 -28 -3 0 137 c0 134 15 264
30 264 4 0 13 -33 19 -72z m540 -463 c70 -106 93 -200 47 -200 -13 0 -39 36
-92 130 -41 72 -74 133 -74 138 0 4 15 7 34 7 32 0 39 -6 85 -75z m-613 20
c-3 -9 -26 -82 -51 -164 -25 -82 -59 -182 -76 -222 -17 -41 -33 -82 -36 -91
-3 -12 -15 -18 -33 -18 l-28 0 13 58 c8 31 30 104 50 162 20 58 45 141 55 185
21 86 36 105 83 105 22 0 28 -4 23 -15z m-2712 -223 c18 -200 16 -252 -5 -252
-16 0 -58 100 -65 157 -3 30 -3 110 1 178 7 120 8 125 29 125 22 0 23 -5 40
-208z m3210 160 c8 -15 17 -50 21 -77 4 -28 24 -111 45 -185 82 -293 105 -458
97 -709 -5 -148 -24 -302 -40 -318 -2 -2 -11 -1 -20 3 -14 5 -15 23 -10 137 6
147 -8 354 -38 557 -19 128 -88 481 -110 563 -5 20 -7 42 -4 47 12 20 45 10
59 -18z m-3076 -139 c-3 -102 -5 -118 -20 -121 -23 -4 -33 34 -33 128 0 88 7
110 35 110 20 0 21 -5 18 -117z m1122 9 c0 -65 -25 -157 -50 -182 -19 -19 -21
-19 -28 -3 -9 23 -9 192 0 216 5 12 18 17 43 17 l35 0 0 -48z m2658 -138 c12
-8 22 -23 22 -32 0 -31 20 -91 36 -106 8 -9 32 -20 53 -26 22 -6 42 -17 45
-26 13 -33 6 -84 -14 -104 -24 -24 -25 -49 -4 -131 11 -44 15 -93 12 -168 -3
-94 -7 -114 -35 -173 -18 -38 -37 -68 -42 -68 -7 0 -11 42 -11 119 0 65 -4
131 -10 147 -5 16 -14 81 -20 144 -11 125 -36 234 -76 335 -20 51 -23 68 -14
84 13 25 28 26 58 5z m-2880 -147 c6 -5 12 -23 12 -38 0 -23 -6 -32 -26 -39
-23 -9 -25 -15 -20 -43 16 -91 18 -135 6 -157 -15 -28 -18 -24 -54 84 -40 119
-44 161 -16 191 18 19 29 23 54 18 17 -3 37 -10 44 -16z m-1149 -25 c5 -9 14
-51 20 -92 16 -99 56 -178 141 -273 39 -43 70 -82 70 -87 0 -12 -29 -40 -42
-40 -23 0 -150 155 -188 230 -17 33 -26 71 -31 140 -4 52 -11 110 -15 129 -7
32 -6 33 14 22 12 -6 26 -19 31 -29z m2881 -49 c0 -34 -23 -139 -32 -149 -2
-2 -14 -1 -26 3 -19 5 -22 12 -22 54 0 70 26 129 56 129 21 0 24 -5 24 -37z
m995 -23 c31 -59 27 -195 -5 -195 -22 0 -49 100 -49 184 l-1 74 21 -19 c12
-10 27 -30 34 -44z m-4431 -94 c22 -45 34 -126 18 -126 -6 0 -17 -7 -26 -15
-14 -14 -17 -13 -30 14 -22 41 -38 121 -31 149 9 37 46 25 69 -22z m4256 -78
c31 -56 45 -109 56 -221 6 -68 6 -69 -17 -65 -38 5 -69 96 -77 229 -4 60 -4
109 0 109 4 0 21 -24 38 -52z m-3020 -66 c52 -41 119 -86 148 -100 61 -28 68
-55 15 -60 -49 -5 -109 27 -202 107 -47 40 -95 78 -108 84 -27 12 -30 42 -6
56 23 12 38 4 153 -87z m2586 -43 c16 -18 18 -35 16 -132 -3 -173 -14 -258
-34 -271 -9 -5 -20 -7 -25 -3 -4 4 -10 90 -14 192 -4 101 -10 189 -14 195 -23
38 39 55 71 19z m-2760 -96 c75 -47 86 -65 45 -71 -12 -2 -25 -10 -28 -18 -4
-11 -16 -6 -50 19 -64 45 -85 74 -72 98 5 10 15 19 21 19 6 0 44 -21 84 -47z
m-1165 -295 c2 -39 -1 -51 -29 -105 -22 -43 -32 -53 -52 -53 -45 0 -51 11 -30
57 18 42 85 123 101 123 5 0 10 -10 10 -22z m4783 -248 c-1 -70 -24 -114 -66
-129 -72 -25 -85 -63 -43 -125 14 -20 25 -48 25 -61 0 -22 4 -25 39 -25 39 0
40 -1 46 -44 9 -57 -1 -86 -27 -86 -37 0 -58 29 -58 80 l0 47 -52 5 c-46 5
-56 10 -88 48 -28 33 -44 43 -68 44 -31 1 -32 3 -26 31 24 112 150 252 263
291 46 16 56 2 55 -76z m-4774 -227 c14 -9 31 -24 38 -33 13 -15 72 -126 72
-134 0 -3 -19 6 -42 18 -24 13 -64 32 -91 41 -51 19 -107 74 -107 105 0 17 7
20 53 20 33 0 62 -6 77 -17z m4898 -430 c7 -10 12 -33 10 -52 -3 -32 -6 -35
-53 -47 -81 -21 -89 -19 -101 25 -12 46 4 87 39 100 29 11 89 -4 105 -26z
m-272 -5 c-3 -21 0 -40 9 -52 23 -31 18 -36 -35 -36 -41 0 -56 5 -75 25 -45
44 -25 82 45 88 25 2 49 4 54 5 4 1 6 -13 2 -30z m-4581 -153 c14 -13 25 -31
25 -40 0 -9 9 -15 24 -15 14 0 42 -10 62 -22 l37 -22 28 33 c18 22 33 32 43
28 20 -8 20 -30 1 -93 -23 -77 -20 -129 11 -153 14 -11 30 -21 36 -23 18 -6 0
-58 -20 -58 -10 0 -27 -7 -38 -15 -17 -13 -54 -21 -54 -11 0 10 -51 250 -53
253 -2 2 -15 -14 -28 -35 -21 -32 -30 -37 -67 -40 -40 -3 -43 -1 -48 27 -6 29
-7 29 -68 28 l-61 -2 -3 79 c-2 44 -1 85 2 93 4 9 26 13 76 13 62 0 74 -3 95
-25z m4605 -45 c0 -54 -34 -90 -87 -91 -97 -3 -136 15 -146 67 -6 32 2 36 45
22 31 -9 41 -8 79 16 24 14 59 26 77 26 31 0 32 -1 32 -40z m286 -660 c-4
-199 -19 -307 -50 -384 l-12 -30 -41 62 c-43 64 -63 130 -63 206 0 58 25 116
49 116 36 0 51 27 51 93 0 64 9 110 38 187 l17 45 8 -45 c4 -25 6 -137 3 -250z
m-4760 228 c19 -17 35 -48 65 -125 4 -12 24 -29 44 -39 34 -16 37 -20 32 -51
-3 -19 -20 -53 -36 -75 -17 -23 -31 -50 -31 -60 0 -42 -54 -1 -101 76 -33 56
-86 93 -115 82 -22 -8 -28 36 -14 109 10 51 18 69 39 84 47 33 79 33 117 -1z
m-200 -153 c8 -27 14 -79 14 -114 0 -68 16 -101 51 -101 11 0 23 -15 35 -45
31 -82 -1 -225 -67 -302 l-28 -32 -15 47 c-8 26 -20 70 -26 97 -14 60 -26 467
-15 522 l7 38 15 -30 c9 -16 22 -52 29 -80z m2114 -1301 c9 -25 9 -58 1 -122
-6 -48 -15 -159 -21 -247 -26 -389 -58 -567 -136 -742 -24 -57 -41 -64 -68
-34 -17 18 -16 24 13 118 84 274 122 520 137 900 6 147 9 173 23 176 23 5 38
-10 51 -49z m627 -1032 c6 -4 17 -20 22 -35 40 -105 -37 -196 -166 -197 -49 0
-53 2 -53 24 0 20 10 27 60 46 75 28 104 61 97 112 -6 46 12 68 40 50z m-551
-104 c11 -13 40 -53 63 -91 55 -86 92 -117 137 -117 32 0 35 -2 29 -22 -4 -13
-12 -28 -19 -35 -13 -14 -100 -18 -166 -8 -40 6 -49 4 -84 -24 -44 -35 -80
-39 -146 -16 -23 8 -60 15 -81 15 -27 0 -39 4 -39 14 0 10 19 16 68 21 93 9
115 17 122 45 4 19 16 26 57 35 91 21 96 36 37 114 -33 43 -42 70 -27 84 12
13 29 7 49 -15z"/>
<path d="M695 9138 c-50 -18 -109 -64 -141 -109 -39 -56 -41 -137 -6 -187 29
-40 88 -71 150 -79 44 -5 51 -2 98 35 52 41 129 145 140 188 18 72 -29 134
-116 153 -61 13 -85 13 -125 -1z"/>
<path d="M453 7261 c-58 -36 -82 -183 -44 -266 24 -54 109 -130 179 -163 49
-23 70 -27 152 -27 87 0 101 3 161 32 82 41 159 119 159 162 0 37 -31 64 -136
118 -127 66 -340 152 -391 158 -38 5 -55 2 -80 -14z"/>
<path d="M1661 4413 c7 -12 15 -20 18 -17 3 2 -3 12 -13 22 -17 16 -18 16 -5
-5z"/>
<path d="M1690 4360 c6 -11 13 -20 16 -20 2 0 0 9 -6 20 -6 11 -13 20 -16 20
-2 0 0 -9 6 -20z"/>
<path d="M1717 4334 c-3 -3 12 -35 34 -70 21 -35 39 -69 39 -74 0 -6 11 -10
23 -10 14 0 24 6 24 14 0 8 -5 14 -11 13 -6 -1 -9 5 -8 13 2 8 0 12 -4 7 -4
-4 -16 0 -26 9 -13 12 -15 21 -7 30 7 9 6 14 -2 20 -7 4 -9 3 -5 -4 3 -6 2
-13 -3 -17 -10 -6 -47 53 -43 68 2 9 -2 9 -11 1z"/>
<path d="M1882 4225 c0 -16 2 -22 5 -12 2 9 2 23 0 30 -3 6 -5 -1 -5 -18z"/>
</g>
</svg>
